<svg width="63" height="19" viewBox="0 0 63 19" fill="none" xmlns="http://www.w3.org/2000/svg">
<path d="M0.721591 18V0.545454H3.88352V15.3494H11.571V18H0.721591ZM28.2322 9.27273C28.2322 11.1534 27.88 12.7642 27.1754 14.1051C26.4766 15.4403 25.522 16.4631 24.3118 17.1733C23.1072 17.8835 21.7408 18.2386 20.2124 18.2386C18.6839 18.2386 17.3146 17.8835 16.1044 17.1733C14.8999 16.4574 13.9453 15.4318 13.2408 14.0966C12.5419 12.7557 12.1925 11.1477 12.1925 9.27273C12.1925 7.39205 12.5419 5.78409 13.2408 4.44886C13.9453 3.10795 14.8999 2.08239 16.1044 1.37216C17.3146 0.661931 18.6839 0.306818 20.2124 0.306818C21.7408 0.306818 23.1072 0.661931 24.3118 1.37216C25.522 2.08239 26.4766 3.10795 27.1754 4.44886C27.88 5.78409 28.2322 7.39205 28.2322 9.27273ZM25.0533 9.27273C25.0533 7.94886 24.8459 6.83239 24.4311 5.92329C24.022 5.00852 23.4538 4.31818 22.7266 3.85227C21.9993 3.38068 21.1612 3.14489 20.2124 3.14489C19.2635 3.14489 18.4254 3.38068 17.6982 3.85227C16.9709 4.31818 16.3999 5.00852 15.9851 5.92329C15.576 6.83239 15.3714 7.94886 15.3714 9.27273C15.3714 10.5966 15.576 11.7159 15.9851 12.6307C16.3999 13.5398 16.9709 14.2301 17.6982 14.7017C18.4254 15.1676 19.2635 15.4006 20.2124 15.4006C21.1612 15.4006 21.9993 15.1676 22.7266 14.7017C23.4538 14.2301 24.022 13.5398 24.4311 12.6307C24.8459 11.7159 25.0533 10.5966 25.0533 9.27273ZM41.9148 6.11932C41.7727 5.65909 41.5767 5.24716 41.3267 4.88352C41.0824 4.5142 40.7869 4.19886 40.4403 3.9375C40.0994 3.67614 39.7074 3.48011 39.2642 3.34943C38.821 3.21307 38.3381 3.14489 37.8153 3.14489C36.8778 3.14489 36.0426 3.38068 35.3097 3.85227C34.5767 4.32386 34 5.01704 33.5795 5.93182C33.1648 6.84091 32.9574 7.94886 32.9574 9.25568C32.9574 10.5739 33.1648 11.6903 33.5795 12.6051C33.9943 13.5199 34.571 14.2159 35.3097 14.6932C36.0483 15.1648 36.9063 15.4006 37.8835 15.4006C38.7699 15.4006 39.5369 15.2301 40.1847 14.8892C40.8381 14.5483 41.3409 14.0653 41.6932 13.4403C42.0455 12.8097 42.2216 12.071 42.2216 11.2244L42.9375 11.3352H38.1989V8.86364H45.2812V10.9602C45.2812 12.4545 44.9631 13.7472 44.3267 14.8381C43.6903 15.929 42.8153 16.7699 41.7017 17.3608C40.5881 17.946 39.3097 18.2386 37.8665 18.2386C36.2585 18.2386 34.8466 17.8778 33.6307 17.1562C32.4205 16.429 31.4744 15.3977 30.7926 14.0625C30.1165 12.7216 29.7784 11.1307 29.7784 9.28977C29.7784 7.88068 29.9773 6.62216 30.375 5.5142C30.7784 4.40625 31.3409 3.46591 32.0625 2.69318C32.7841 1.91477 33.6307 1.32386 34.6023 0.920454C35.5739 0.511363 36.6307 0.306818 37.7727 0.306818C38.7386 0.306818 39.6392 0.448863 40.4744 0.732954C41.3097 1.01136 42.0511 1.40909 42.6989 1.92614C43.3523 2.44318 43.8892 3.05682 44.3097 3.76704C44.7301 4.47727 45.0057 5.26136 45.1364 6.11932H41.9148ZM62.9354 9.27273C62.9354 11.1534 62.5831 12.7642 61.8786 14.1051C61.1797 15.4403 60.2251 16.4631 59.0149 17.1733C57.8104 17.8835 56.4439 18.2386 54.9155 18.2386C53.3871 18.2386 52.0178 17.8835 50.8075 17.1733C49.603 16.4574 48.6484 15.4318 47.9439 14.0966C47.245 12.7557 46.8956 11.1477 46.8956 9.27273C46.8956 7.39205 47.245 5.78409 47.9439 4.44886C48.6484 3.10795 49.603 2.08239 50.8075 1.37216C52.0178 0.661931 53.3871 0.306818 54.9155 0.306818C56.4439 0.306818 57.8104 0.661931 59.0149 1.37216C60.2251 2.08239 61.1797 3.10795 61.8786 4.44886C62.5831 5.78409 62.9354 7.39205 62.9354 9.27273ZM59.7564 9.27273C59.7564 7.94886 59.549 6.83239 59.1342 5.92329C58.7251 5.00852 58.157 4.31818 57.4297 3.85227C56.7024 3.38068 55.8643 3.14489 54.9155 3.14489C53.9666 3.14489 53.1286 3.38068 52.4013 3.85227C51.674 4.31818 51.103 5.00852 50.6882 5.92329C50.2791 6.83239 50.0746 7.94886 50.0746 9.27273C50.0746 10.5966 50.2791 11.7159 50.6882 12.6307C51.103 13.5398 51.674 14.2301 52.4013 14.7017C53.1286 15.1676 53.9666 15.4006 54.9155 15.4006C55.8643 15.4006 56.7024 15.1676 57.4297 14.7017C58.157 14.2301 58.7251 13.5398 59.1342 12.6307C59.549 11.7159 59.7564 10.5966 59.7564 9.27273Z" fill="white"/>
</svg>
