<svg width="24" height="24" viewBox="0 0 24 24" fill="none" xmlns="http://www.w3.org/2000/svg">
<path d="M14 18C14.2652 18 14.5195 17.8947 14.7071 17.7071C14.8946 17.5196 15 17.2652 15 17V15C15 14.7348 14.8946 14.4805 14.7071 14.2929C14.5195 14.1054 14.2652 14 14 14C13.7348 14 13.4804 14.1054 13.2929 14.2929C13.1053 14.4805 13 14.7348 13 15V17C13 17.2652 13.1053 17.5196 13.2929 17.7071C13.4804 17.8947 13.7348 18 14 18ZM9.99998 18C10.2652 18 10.5195 17.8947 10.7071 17.7071C10.8946 17.5196 11 17.2652 11 17V15C11 14.7348 10.8946 14.4805 10.7071 14.2929C10.5195 14.1054 10.2652 14 9.99998 14C9.73476 14 9.48041 14.1054 9.29287 14.2929C9.10533 14.4805 8.99998 14.7348 8.99998 15V17C8.99998 17.2652 9.10533 17.5196 9.29287 17.7071C9.48041 17.8947 9.73476 18 9.99998 18ZM19 6.00003H17.62L15.89 2.55003C15.8371 2.42308 15.7586 2.3084 15.6594 2.21316C15.5603 2.11791 15.4425 2.04414 15.3135 1.99647C15.1845 1.94879 15.0471 1.92823 14.9098 1.93607C14.7725 1.94392 14.6383 1.97999 14.5156 2.04204C14.3929 2.10408 14.2843 2.19078 14.1966 2.2967C14.1089 2.40261 14.044 2.52548 14.0059 2.65762C13.9678 2.78976 13.9574 2.92833 13.9753 3.06467C13.9932 3.20102 14.0391 3.3322 14.11 3.45003L15.38 6.00003H8.61998L9.88998 3.45003C9.98704 3.21693 9.99234 2.95575 9.9048 2.71891C9.81726 2.48208 9.64337 2.28712 9.41804 2.17319C9.19271 2.05926 8.93262 2.03479 8.68999 2.10469C8.44736 2.17458 8.24016 2.33368 8.10998 2.55003L6.37998 6.00003H4.99998C4.29316 6.01078 3.61285 6.27077 3.07903 6.73416C2.5452 7.19755 2.19215 7.83455 2.08215 8.53283C1.97214 9.23112 2.11225 9.94581 2.47776 10.5509C2.84327 11.1559 3.4107 11.6125 4.07998 11.84L4.81998 19.3C4.8946 20.0426 5.24332 20.7307 5.79805 21.2299C6.35278 21.7292 7.07368 22.0038 7.81998 22H16.2C16.9463 22.0038 17.6672 21.7292 18.2219 21.2299C18.7766 20.7307 19.1254 20.0426 19.2 19.3L19.94 11.84C20.6107 11.6118 21.179 11.1536 21.5443 10.5465C21.9095 9.93942 22.0481 9.22266 21.9355 8.52317C21.823 7.82368 21.4664 7.18661 20.9291 6.7248C20.3918 6.26299 19.7084 6.00624 19 6.00003ZM17.19 19.1C17.1651 19.3475 17.0489 19.5769 16.864 19.7433C16.679 19.9098 16.4387 20.0013 16.19 20H7.80998C7.56121 20.0013 7.32091 19.9098 7.136 19.7433C6.95109 19.5769 6.83485 19.3475 6.80998 19.1L6.09998 12H17.9L17.19 19.1ZM19 10H4.99998C4.73476 10 4.48041 9.89467 4.29287 9.70713C4.10533 9.5196 3.99998 9.26524 3.99998 9.00003C3.99998 8.73481 4.10533 8.48046 4.29287 8.29292C4.48041 8.10538 4.73476 8.00003 4.99998 8.00003H19C19.2652 8.00003 19.5195 8.10538 19.7071 8.29292C19.8946 8.48046 20 8.73481 20 9.00003C20 9.26524 19.8946 9.5196 19.7071 9.70713C19.5195 9.89467 19.2652 10 19 10Z" fill="black"/>
</svg>
