<svg width="21" height="18" viewBox="0 0 21 18" fill="none" xmlns="http://www.w3.org/2000/svg">
<path d="M19.16 2.00004C18.0999 0.937251 16.6948 0.288583 15.1983 0.171213C13.7018 0.0538432 12.2127 0.475509 11 1.36004C9.72763 0.413681 8.14396 -0.0154454 6.56789 0.159081C4.99182 0.333607 3.54041 1.09882 2.50594 2.30063C1.47148 3.50244 0.930793 5.05156 0.992771 6.63606C1.05475 8.22055 1.71479 9.72271 2.83997 10.84L9.04997 17.06C9.56999 17.5718 10.2704 17.8587 11 17.8587C11.7296 17.8587 12.43 17.5718 12.95 17.06L19.16 10.84C20.3275 9.66531 20.9829 8.07632 20.9829 6.42004C20.9829 4.76377 20.3275 3.17478 19.16 2.00004V2.00004ZM17.75 9.46004L11.54 15.67C11.4693 15.7414 11.3852 15.798 11.2925 15.8367C11.1998 15.8753 11.1004 15.8953 11 15.8953C10.8995 15.8953 10.8001 15.8753 10.7074 15.8367C10.6147 15.798 10.5306 15.7414 10.46 15.67L4.24997 9.43004C3.46573 8.62839 3.02658 7.55151 3.02658 6.43004C3.02658 5.30858 3.46573 4.2317 4.24997 3.43004C5.04913 2.64103 6.12694 2.19861 7.24997 2.19861C8.373 2.19861 9.45081 2.64103 10.25 3.43004C10.3429 3.52377 10.4535 3.59817 10.5754 3.64893C10.6973 3.6997 10.828 3.72584 10.96 3.72584C11.092 3.72584 11.2227 3.6997 11.3445 3.64893C11.4664 3.59817 11.577 3.52377 11.67 3.43004C12.4691 2.64103 13.5469 2.19861 14.67 2.19861C15.793 2.19861 16.8708 2.64103 17.67 3.43004C18.465 4.22119 18.9186 5.29223 18.9335 6.41373C18.9485 7.53522 18.5236 8.61798 17.75 9.43004V9.46004Z" fill="black"/>
</svg>
