<svg width="24" height="24" viewBox="0 0 24 24" fill="none" xmlns="http://www.w3.org/2000/svg">
<path fill-rule="evenodd" clip-rule="evenodd" d="M16.0955 1.5C16.2255 2.68299 15.7571 3.84874 15.0725 4.7056C14.3582 5.54914 13.2154 6.19433 12.1023 6.11124C11.9567 4.97293 12.5206 3.7625 13.1519 3.02401C13.8655 2.18596 15.1047 1.5439 16.0955 1.5ZM19.7392 8.32432C19.615 8.39853 17.5565 9.62821 17.579 12.136C17.6049 15.1644 20.2258 16.1655 20.2579 16.1765C20.2422 16.2471 19.8474 17.6214 18.8644 19.0168C18.0435 20.2453 17.1835 21.4463 15.8174 21.4682C15.168 21.4832 14.7295 21.2963 14.2726 21.1015C13.7959 20.8983 13.2992 20.6866 12.5222 20.6866C11.6984 20.6866 11.1797 20.9051 10.6794 21.1159C10.2468 21.2981 9.82807 21.4745 9.23788 21.4988C7.93685 21.5466 6.94286 20.1872 6.09222 18.9698C4.39172 16.4838 3.06797 11.9643 4.84289 8.88886C5.70293 7.38053 7.27106 6.4092 8.94728 6.38333C9.68542 6.36823 10.3934 6.65294 11.014 6.90253C11.4886 7.09339 11.9121 7.26372 12.259 7.26372C12.5637 7.26372 12.9753 7.1002 13.4551 6.90962C14.2112 6.60928 15.1365 6.24172 16.0791 6.341C16.7237 6.35982 18.5582 6.59579 19.7417 8.32284L19.7392 8.32432Z" fill="black"/>
</svg>
