<svg width="24" height="24" viewBox="0 0 24 24" fill="none" xmlns="http://www.w3.org/2000/svg">
<path fill-rule="evenodd" clip-rule="evenodd" d="M22 12C22 6.478 17.522 2 12 2C6.478 2 2 6.478 2 12C2 17.522 6.478 22 12 22C12.0587 22 12.1172 21.9988 12.1758 21.9977V14.2131H10.0273V11.7093H12.1758V9.86682C12.1758 7.72998 13.4803 6.56696 15.3864 6.56696C16.2992 6.56696 17.0838 6.63501 17.3125 6.66537V8.89865H15.9981C14.9611 8.89865 14.7603 9.39151 14.7603 10.1146V11.7093H17.2399L16.9167 14.2131H14.7603V21.6136C18.9402 20.4154 22 16.5645 22 12Z" fill="black"/>
</svg>
