<svg width="24" height="24" viewBox="0 0 24 24" fill="none" xmlns="http://www.w3.org/2000/svg">
<path d="M12 21C17.1936 21 20.6436 17.3544 20.6436 12.2088C20.6436 11.6196 20.5824 11.1648 20.4972 10.7112H12.0012V13.8048H17.1096C16.9008 15.1188 15.5628 17.6844 12.0012 17.6844C8.9328 17.6844 6.4272 15.1428 6.4272 12C6.4272 8.8572 8.9316 6.3144 12.0012 6.3144C13.7568 6.3144 14.9232 7.0632 15.5868 7.7016L18.03 5.3568C16.4568 3.8844 14.4312 3 12 3C7.0272 3 3 7.0272 3 12C3 16.9728 7.0272 21 12 21Z" fill="black"/>
</svg>
